<svg xmlns="http://www.w3.org/2000/svg" width="1920" height="1080" viewBox="0 0 1873.3 1049.1" style="opacity: 0.6;">
  <defs>
    <style>
      .a {
        fill: none;
        stroke: #c2e1f7;
        stroke-miterlimit: 10;
        stroke-width: 5px;
      }
    </style>
  </defs>
  <title>ondas6</title>
  <path class="a" d="M49.5,50.2s76-22,80,57,91,45,91,45" transform="translate(-30.5 -20.5)"/>
  <path class="a" d="M724.5,479.2s76-22,80,57,91,45,91,45" transform="translate(-30.5 -20.5)"/>
  <path class="a" d="M1061,190s76-22,80,57,91,45,91,45" transform="translate(-30.5 -20.5)"/>
  <path class="a" d="M553.5,77.9s76-22,80,57,91,45,91,45" transform="translate(-30.5 -20.5)"/>
  <path class="a" d="M195.3,593.4s13.6-77.9,86.4-46.8,80.4-62,80.4-62" transform="translate(-30.5 -20.5)"/>
  <path class="a" d="M275.7,958.5s-71-35-20.7-96.1-36.8-94.6-36.8-94.6" transform="translate(-30.5 -20.5)"/>
  <path class="a" d="M596.8,833.6s76-22,80,57,91,45,91,45" transform="translate(-30.5 -20.5)"/>
  <path class="a" d="M1704.8,35.5s76-22,80,57,91,45,91,45" transform="translate(-30.5 -20.5)"/>
  <path class="a" d="M1682.1,922.2s76-22,80,57,91,45,91,45" transform="translate(-30.5 -20.5)"/>
  <path class="a" d="M49.5,938s76-22,80,57,91,45,91,45" transform="translate(-30.5 -20.5)"/>
  <path class="a" d="M111.2,251.1s69.3,38.2,16.2,96.9S160,444.2,160,444.2" transform="translate(-30.5 -20.5)"/>
  <path class="a" d="M447.8,187.2s69.3,38.2,16.3,96.9,32.5,96.1,32.5,96.1" transform="translate(-30.5 -20.5)"/>
  <path class="a" d="M1414.2,790.3s69.3,38.2,16.2,96.9,32.6,96.1,32.6,96.1" transform="translate(-30.5 -20.5)"/>
  <path class="a" d="M430.1,733.7s13.6-77.9,86.3-46.8,80.4-62,80.4-62" transform="translate(-30.5 -20.5)"/>
  <path class="a" d="M793.3,353.7s13.6-77.9,86.3-46.8,80.4-62,80.4-62" transform="translate(-30.5 -20.5)"/>
  <path class="a" d="M1387.7,183.9s13.6-77.9,86.3-46.8,80.4-62,80.4-62" transform="translate(-30.5 -20.5)"/>
  <path class="a" d="M1379.6,586.8s13.6-77.9,86.3-46.8,80.4-62,80.4-62" transform="translate(-30.5 -20.5)"/>
  <path class="a" d="M1134,774.6s-70.9-35-20.6-96-36.9-94.6-36.9-94.6" transform="translate(-30.5 -20.5)"/>
  <path class="a" d="M1076.5,1038.2s-71-35-20.6-96.1-36.9-94.6-36.9-94.6" transform="translate(-30.5 -20.5)"/>
  <path class="a" d="M363.4,1014.7s13.6-77.9,86.3-46.8,80.4-62,80.4-62" transform="translate(-30.5 -20.5)"/>
  <path class="a" d="M1148.6,489.1s13.6-78,86.4-46.9,80.4-62,80.4-62" transform="translate(-30.5 -20.5)"/>
  <path class="a" d="M879.3,129.5s13.6-77.9,86.3-46.8,80.4-62,80.4-62" transform="translate(-30.5 -20.5)"/>
  <path class="a" d="M1583.6,745.8s13.6-77.9,86.4-46.8,80.4-62,80.4-62" transform="translate(-30.5 -20.5)"/>
  <path class="a" d="M1667,356.5s76-22,80,57,91,45,91,45" transform="translate(-30.5 -20.5)"/>
  <path class="a" d="M31.2,591.3s76-22,80,57,91,45,91,45" transform="translate(-30.5 -20.5)"/>
  <path class="a" d="M575.7,376.9s55.1,56.8-12.8,97.4,2.9,101.5,2.9,101.5" transform="translate(-30.5 -20.5)"/>
  <path class="a" d="M871.7,693.8S941,732,887.9,790.6s32.6,96.2,32.6,96.2" transform="translate(-30.5 -20.5)"/>
  <path class="a" d="M313.3,51.8s69.3,38.2,16.2,96.9,32.6,96.2,32.6,96.2" transform="translate(-30.5 -20.5)"/>
  <path class="a" d="M1266.6,33s69.3,38.2,16.2,96.9,32.6,96.1,32.6,96.1" transform="translate(-30.5 -20.5)"/>
  <path class="a" d="M1207.1,844.7s13.6-77.9,86.3-46.8,80.4-62,80.4-62" transform="translate(-30.5 -20.5)"/>
  <path class="a" d="M1158.7,1051.7s13.6-77.9,86.3-46.8,80.4-62,80.4-62" transform="translate(-30.5 -20.5)"/>
  <path class="a" d="M753.7,1069.1s13.6-77.9,86.4-46.8,80.4-62,80.4-62" transform="translate(-30.5 -20.5)"/>
  <path class="a" d="M1515.4,941.2s13.6-77.9,86.3-46.8,80.4-62,80.4-62" transform="translate(-30.5 -20.5)"/>
  <path class="a" d="M1626,379s-71-35-20.7-96-36.8-94.6-36.8-94.6" transform="translate(-30.5 -20.5)"/>
  <path class="a" d="M1028.5,365s33.8,71.5-43.6,88-30,97-30,97" transform="translate(-30.5 -20.5)"/>
  <path class="a" d="M1734.5,863.2s13.6-78,86.4-46.9,80.4-62,80.4-62" transform="translate(-30.5 -20.5)"/>
</svg>
